<?xml version="1.0" standalone="no"?>
<!DOCTYPE svg PUBLIC "-//W3C//DTD SVG 1.1//EN" "http://www.w3.org/Graphics/SVG/1.1/DTD/svg11.dtd" >
<svg xmlns="http://www.w3.org/2000/svg" xmlns:xlink="http://www.w3.org/1999/xlink" version="1.1" viewBox="-10 0 1044 1024">
   <path fill="currentColor"
d="M652 326h-279q-39 0 -66 27.5t-27 65.5v140q0 38 27 65.5t66 27.5h279q38 0 65.5 -27.5t27.5 -65.5v-140q0 -38 -27.5 -65.5t-65.5 -27.5zM652 559h-279v-140h279v140zM605 791h-186q-19 0 -32.5 -13.5t-13.5 -32.5v0q0 -20 13.5 -33.5t32.5 -13.5h186q20 0 33.5 13.5
t13.5 33.5v0q0 19 -13.5 32.5t-33.5 13.5zM374 1003q-7 0 -14 -2q-106 -33 -188 -105.5t-127 -172t-45 -211.5q0 -104 41 -199q38 -92 109 -163t163 -110q95 -40 199 -40t199 40q92 39 163 110t110 163q40 95 40 199q0 111 -44.5 210.5t-126 172t-187.5 106.5
q-18 6 -35.5 -3t-23 -27.5t3.5 -35.5t27 -23q87 -27 153.5 -86.5t103 -141t36.5 -172.5q0 -114 -57 -211q-56 -95 -150 -151q-98 -57 -211.5 -57t-211.5 57q-95 56 -150 151q-58 97 -58 211q0 92 37 173.5t104 140.5t154 86q18 6 27 23t4 36q-5 14 -17.5 23t-27.5 9z" />
</svg>
