<?xml version="1.0" standalone="no"?>
<!DOCTYPE svg PUBLIC "-//W3C//DTD SVG 1.1//EN" "http://www.w3.org/Graphics/SVG/1.1/DTD/svg11.dtd" >
<svg xmlns="http://www.w3.org/2000/svg" xmlns:xlink="http://www.w3.org/1999/xlink" version="1.1" viewBox="-10 0 1034 1024">
   <path fill="currentColor"
d="M140 528q0 34 23.5 57.5t57.5 23.5t58 -23.5t24 -57.5t-24 -58t-58 -24t-57.5 24t-23.5 58zM453 333q-12 -15 -31 -16.5t-34 11t-17 31.5t11 34q31 37 42 85.5t0 97.5t-43 86q-10 13 -10 30q0 22 16 36q15 12 34 10.5t32 -16.5q34 -41 52.5 -91.5t18.5 -103.5t-18.5 -103
t-52.5 -91zM596 214q-13 -15 -32 -16.5t-34 11t-16.5 31.5t10.5 34q45 53 69 118.5t24 135t-24 135t-69 118.5q-11 13 -11 30q0 22 16 36q15 12 34.5 10.5t31.5 -16.5q56 -66 85.5 -147t29.5 -167t-29.5 -166.5t-84.5 -146.5zM738 95q-12 -15 -31.5 -16.5t-34 11t-16.5 31.5
t11 34q66 78 101 174t35 198.5t-35 198.5t-101 175q-11 13 -11 30q0 22 16 36q15 12 34.5 10.5t31.5 -16.5q76 -91 117 -203t41 -230.5t-41 -230t-117 -202.5z" />
</svg>
