<?xml version="1.0" standalone="no"?>
<!DOCTYPE svg PUBLIC "-//W3C//DTD SVG 1.1//EN" "http://www.w3.org/Graphics/SVG/1.1/DTD/svg11.dtd" >
<svg xmlns="http://www.w3.org/2000/svg" xmlns:xlink="http://www.w3.org/1999/xlink" version="1.1" viewBox="-10 0 1034 1024">
   <path fill="currentColor"
d="M526 568l37 -37l-65 -66l-37 33q-34 -17 -65 -23v-56h-93v51q-47 19 -66 28l-37 -33l-65 66l37 37q-20 27 -28 65h-51v93h51q8 38 28 65l-37 38l65 65l37 -38q27 21 66 28v47h93v-51q38 -8 65 -28l37 37l65 -65l-37 -37q20 -27 28 -66h51v-93h-51q-6 -31 -28 -60z
M349 791q-32 0 -58.5 -15.5t-42 -42t-15.5 -58.5t15.5 -59t42 -42t58.5 -15t58.5 16t42 43t15.5 57t-15.5 57t-42 43t-58.5 16zM884 289l47 -19l-33 -88l-51 18q-8 -15 -23 -23l23 -51l-88 -33l-24 51h-32l-19 -51l-88 33l18 51q-4 9 -18 23l-51 -18l-33 83l47 24v32l-47 19
l33 88l51 -18q8 15 23 23l-23 51l84 37l23 -56h32l19 52l88 -33l-18 -51l23 -23l51 23l33 -89l-47 -23v-32zM749 368q-27 10 -52.5 -1t-40.5 -37q-10 -27 1 -52.5t37 -40.5q27 -10 52.5 1t40.5 37q10 30 -1 56t-37 37z" />
</svg>
