<?xml version="1.0" standalone="no"?>
<!DOCTYPE svg PUBLIC "-//W3C//DTD SVG 1.1//EN" "http://www.w3.org/Graphics/SVG/1.1/DTD/svg11.dtd" >
<svg xmlns="http://www.w3.org/2000/svg" xmlns:xlink="http://www.w3.org/1999/xlink" version="1.1" viewBox="-10 0 1034 1024">
   <path fill="currentColor"
d="M666 499q44 -39 64.5 -94.5t11.5 -114.5t-44.5 -106t-90 -71.5t-113.5 -20t-109 37t-78 84.5t-28 112v5q1 49 22 93.5t57 77.5q-77 37 -123.5 109t-48.5 158v162h652v-162q-1 -86 -47.5 -159t-124.5 -111v0zM512 186q42 0 77.5 23.5t51.5 63t8 81t-38 71.5t-71.5 38
t-81 -8t-63 -51.5t-23.5 -77.5q0 -28 11 -53.5t30.5 -45.5t45 -30.5t53.5 -10.5v0zM745 838h-466v-69q2 -43 20 -82.5t50 -69.5t72.5 -45t83.5 -13h14q43 -2 84 13.5t72.5 45t49.5 69t20 82.5v69z" />
</svg>
